<svg width="20" height="21" viewBox="0 0 20 21" fill="none" xmlns="http://www.w3.org/2000/svg">
<mask id="path-1-inside-1_9_56" fill="white">
<path d="M18.59 11.0163L11 17.6488L11 0L9 0L9 17.6488L1.41 11.0163L0 12.25L10 21L20 12.25L18.59 11.0163Z"/>
</mask>
<path d="M18.59 11.0163L11 17.6488L11 0L9 0L9 17.6488L1.41 11.0163L0 12.25L10 21L20 12.25L18.59 11.0163Z" fill="#F2F2F2"/>
<path d="M18.59 11.0163L25.175 3.49048L18.5943 -2.26763L12.0099 3.48618L18.59 11.0163ZM11 17.6488L1 17.6488L1 39.6673L17.5801 25.1788L11 17.6488ZM11 0L21 0V-10L11 -10L11 0ZM9 0L9 -10L-1 -10L-1 0L9 0ZM9 17.6488L2.41987 25.1788L19 39.6673L19 17.6488L9 17.6488ZM1.41 11.0163L7.99013 3.48618L1.40566 -2.26763L-5.17504 3.49048L1.41 11.0163ZM0 12.25L-6.58504 4.72423L-15.1859 12.25L-6.58505 19.7758L0 12.25ZM10 21L3.41495 28.5258L10 34.2877L16.585 28.5258L10 21ZM20 12.25L26.585 19.7758L35.1859 12.25L26.585 4.72423L20 12.25ZM12.0099 3.48618L4.41987 10.1187L17.5801 25.1788L25.1701 18.5463L12.0099 3.48618ZM21 17.6488L21 0L1 0L1 17.6488L21 17.6488ZM11 -10H9L9 10H11L11 -10ZM-1 0L-1 17.6488L19 17.6488L19 0L-1 0ZM15.5801 10.1187L7.99013 3.48618L-5.17013 18.5463L2.41987 25.1788L15.5801 10.1187ZM-5.17504 3.49048L-6.58504 4.72423L6.58504 19.7758L7.99504 18.542L-5.17504 3.49048ZM-6.58505 19.7758L3.41495 28.5258L16.585 13.4742L6.58505 4.72423L-6.58505 19.7758ZM16.585 28.5258L26.585 19.7758L13.415 4.72423L3.41495 13.4742L16.585 28.5258ZM26.585 4.72423L25.175 3.49048L12.005 18.542L13.415 19.7758L26.585 4.72423Z" fill="white" mask="url(#path-1-inside-1_9_56)"/>
</svg>
