<svg width="20" height="21" viewBox="0 0 20 21" fill="none" xmlns="http://www.w3.org/2000/svg">
<mask id="path-1-inside-1_9_55" fill="white">
<path d="M1.41 9.98375L9 3.35125L9 21H11L11 3.35125L18.59 9.98375L20 8.75L10 0L0 8.75L1.41 9.98375Z"/>
</mask>
<path d="M1.41 9.98375L9 3.35125L9 21H11L11 3.35125L18.59 9.98375L20 8.75L10 0L0 8.75L1.41 9.98375Z" fill="#F2F2F2"/>
<path d="M1.41 9.98375L-0.565514 12.2415L1.4087 13.9689L3.38404 12.2428L1.41 9.98375ZM9 3.35125H12L12 -3.25432L7.02596 1.09223L9 3.35125ZM9 21H6V24H9V21ZM11 21V24L14 24V21L11 21ZM11 3.35125L12.974 1.09223L8 -3.25432L8 3.35125H11ZM18.59 9.98375L16.616 12.2428L18.5913 13.9689L20.5655 12.2415L18.59 9.98375ZM20 8.75L21.9755 11.0077L24.5558 8.75L21.9755 6.49227L20 8.75ZM10 0L11.9755 -2.25773L10 -3.98631L8.02449 -2.25773L10 0ZM0 8.75L-1.97551 6.49227L-4.55578 8.75L-1.97551 11.0077L0 8.75ZM3.38404 12.2428L10.974 5.61027L7.02596 1.09223L-0.564039 7.72473L3.38404 12.2428ZM6 3.35125L6 21H12L12 3.35125H6ZM9 24H11V18H9V24ZM14 21L14 3.35125L8 3.35125L8 21L14 21ZM9.02596 5.61027L16.616 12.2428L20.564 7.72473L12.974 1.09223L9.02596 5.61027ZM20.5655 12.2415L21.9755 11.0077L18.0245 6.49227L16.6145 7.72602L20.5655 12.2415ZM21.9755 6.49227L11.9755 -2.25773L8.02449 2.25773L18.0245 11.0077L21.9755 6.49227ZM8.02449 -2.25773L-1.97551 6.49227L1.97551 11.0077L11.9755 2.25773L8.02449 -2.25773ZM-1.97551 11.0077L-0.565514 12.2415L3.38551 7.72602L1.97551 6.49227L-1.97551 11.0077Z" fill="white" mask="url(#path-1-inside-1_9_55)"/>
</svg>
